<?xml version="1.0" encoding="utf-8"?>
<!-- Generator: Adobe Illustrator 26.3.1, SVG Export Plug-In . SVG Version: 6.00 Build 0)  -->
<svg version="1.1" id="レイヤー_1" xmlns="http://www.w3.org/2000/svg" xmlns:xlink="http://www.w3.org/1999/xlink" x="0px"
	 y="0px" viewBox="0 0 381 502.5" style="enable-background:new 0 0 381 502.5;" xml:space="preserve">
<style type="text/css">
	.st0{fill:#CCCCCC;stroke:#000000;stroke-width:2;}
	.st1{fill:#CCCCCC;}
	.st2{fill:#FCFCFC;}
	.st3{fill:#FCEFB3;stroke:#000000;stroke-width:2;}
	.st4{fill:#FCEFB3;}
	.st5{fill:#FFFFC3;}
	.st6{fill:#B4E5F5;stroke:#000000;stroke-width:2;}
	.st7{fill:#B4E5F5;}
	.st8{fill:#D5FFFF;}
	.st9{fill:#FCA351;stroke:#000000;stroke-width:2;}
	.st10{fill:#FCA351;}
	.st11{fill:#FFCD79;}
</style>
<g>
	<path class="st0" d="M34.5,16h42c2.8,0,5,2.2,5,5v42c0,2.8-2.2,5-5,5h-42c-2.8,0-5-2.2-5-5V21C29.5,18.2,31.7,16,34.5,16z"/>
	<path class="st1" d="M34.5,16h42c2.8,0,5,2.2,5,5v42c0,2.8-2.2,5-5,5h-42c-2.8,0-5-2.2-5-5V21C29.5,18.2,31.7,16,34.5,16z"/>
	<path class="st2" d="M40.5,19h30c2.8,0,5,2.2,5,5v30c0,2.8-2.2,5-5,5h-30c-2.8,0-5-2.2-5-5V24C35.5,21.2,37.7,19,40.5,19z"/>
	<path class="st2" d="M40.5,19h30c2.8,0,5,2.2,5,5v30c0,2.8-2.2,5-5,5h-30c-2.8,0-5-2.2-5-5V24C35.5,21.2,37.7,19,40.5,19z"/>
</g>
<g>
	<path class="st0" d="M115.5,16h42c2.8,0,5,2.2,5,5v42c0,2.8-2.2,5-5,5h-42c-2.8,0-5-2.2-5-5V21C110.5,18.2,112.7,16,115.5,16z"/>
	<path class="st1" d="M115.5,16h42c2.8,0,5,2.2,5,5v42c0,2.8-2.2,5-5,5h-42c-2.8,0-5-2.2-5-5V21C110.5,18.2,112.7,16,115.5,16z"/>
	<path class="st2" d="M121.5,19h30c2.8,0,5,2.2,5,5v30c0,2.8-2.2,5-5,5h-30c-2.8,0-5-2.2-5-5V24C116.5,21.2,118.7,19,121.5,19z"/>
	<path class="st2" d="M121.5,19h30c2.8,0,5,2.2,5,5v30c0,2.8-2.2,5-5,5h-30c-2.8,0-5-2.2-5-5V24C116.5,21.2,118.7,19,121.5,19z"/>
</g>
<g>
	<path class="st0" d="M169.5,16h42c2.8,0,5,2.2,5,5v42c0,2.8-2.2,5-5,5h-42c-2.8,0-5-2.2-5-5V21C164.5,18.2,166.7,16,169.5,16z"/>
	<path class="st1" d="M169.5,16h42c2.8,0,5,2.2,5,5v42c0,2.8-2.2,5-5,5h-42c-2.8,0-5-2.2-5-5V21C164.5,18.2,166.7,16,169.5,16z"/>
	<path class="st2" d="M175.5,19h30c2.8,0,5,2.2,5,5v30c0,2.8-2.2,5-5,5h-30c-2.8,0-5-2.2-5-5V24C170.5,21.2,172.7,19,175.5,19z"/>
	<path class="st2" d="M175.5,19h30c2.8,0,5,2.2,5,5v30c0,2.8-2.2,5-5,5h-30c-2.8,0-5-2.2-5-5V24C170.5,21.2,172.7,19,175.5,19z"/>
</g>
<g>
	<path class="st0" d="M223.5,16h42c2.8,0,5,2.2,5,5v42c0,2.8-2.2,5-5,5h-42c-2.8,0-5-2.2-5-5V21C218.5,18.2,220.7,16,223.5,16z"/>
	<path class="st1" d="M223.5,16h42c2.8,0,5,2.2,5,5v42c0,2.8-2.2,5-5,5h-42c-2.8,0-5-2.2-5-5V21C218.5,18.2,220.7,16,223.5,16z"/>
	<path class="st2" d="M229.5,19h30c2.8,0,5,2.2,5,5v30c0,2.8-2.2,5-5,5h-30c-2.8,0-5-2.2-5-5V24C224.5,21.2,226.7,19,229.5,19z"/>
	<path class="st2" d="M229.5,19h30c2.8,0,5,2.2,5,5v30c0,2.8-2.2,5-5,5h-30c-2.8,0-5-2.2-5-5V24C224.5,21.2,226.7,19,229.5,19z"/>
</g>
<g>
	<path class="st0" d="M277.5,16h42c2.8,0,5,2.2,5,5v42c0,2.8-2.2,5-5,5h-42c-2.8,0-5-2.2-5-5V21C272.5,18.2,274.7,16,277.5,16z"/>
	<path class="st1" d="M277.5,16h42c2.8,0,5,2.2,5,5v42c0,2.8-2.2,5-5,5h-42c-2.8,0-5-2.2-5-5V21C272.5,18.2,274.7,16,277.5,16z"/>
	<path class="st2" d="M283.5,19h30c2.8,0,5,2.2,5,5v30c0,2.8-2.2,5-5,5h-30c-2.8,0-5-2.2-5-5V24C278.5,21.2,280.7,19,283.5,19z"/>
	<path class="st2" d="M283.5,19h30c2.8,0,5,2.2,5,5v30c0,2.8-2.2,5-5,5h-30c-2.8,0-5-2.2-5-5V24C278.5,21.2,280.7,19,283.5,19z"/>
</g>
<g>
	<path class="st0" d="M115.5,70h42c2.8,0,5,2.2,5,5v42c0,2.8-2.2,5-5,5h-42c-2.8,0-5-2.2-5-5V75C110.5,72.2,112.7,70,115.5,70z"/>
	<path class="st1" d="M115.5,70h42c2.8,0,5,2.2,5,5v42c0,2.8-2.2,5-5,5h-42c-2.8,0-5-2.2-5-5V75C110.5,72.2,112.7,70,115.5,70z"/>
	<path class="st2" d="M121.5,73h30c2.8,0,5,2.2,5,5v30c0,2.8-2.2,5-5,5h-30c-2.8,0-5-2.2-5-5V78C116.5,75.2,118.7,73,121.5,73z"/>
	<path class="st2" d="M121.5,73h30c2.8,0,5,2.2,5,5v30c0,2.8-2.2,5-5,5h-30c-2.8,0-5-2.2-5-5V78C116.5,75.2,118.7,73,121.5,73z"/>
</g>
<g>
	<path class="st0" d="M169.5,70h42c2.8,0,5,2.2,5,5v42c0,2.8-2.2,5-5,5h-42c-2.8,0-5-2.2-5-5V75C164.5,72.2,166.7,70,169.5,70z"/>
	<path class="st1" d="M169.5,70h42c2.8,0,5,2.2,5,5v42c0,2.8-2.2,5-5,5h-42c-2.8,0-5-2.2-5-5V75C164.5,72.2,166.7,70,169.5,70z"/>
	<path class="st2" d="M175.5,73h30c2.8,0,5,2.2,5,5v30c0,2.8-2.2,5-5,5h-30c-2.8,0-5-2.2-5-5V78C170.5,75.2,172.7,73,175.5,73z"/>
	<path class="st2" d="M175.5,73h30c2.8,0,5,2.2,5,5v30c0,2.8-2.2,5-5,5h-30c-2.8,0-5-2.2-5-5V78C170.5,75.2,172.7,73,175.5,73z"/>
</g>
<g>
	<path class="st0" d="M223.5,70h42c2.8,0,5,2.2,5,5v42c0,2.8-2.2,5-5,5h-42c-2.8,0-5-2.2-5-5V75C218.5,72.2,220.7,70,223.5,70z"/>
	<path class="st1" d="M223.5,70h42c2.8,0,5,2.2,5,5v42c0,2.8-2.2,5-5,5h-42c-2.8,0-5-2.2-5-5V75C218.5,72.2,220.7,70,223.5,70z"/>
	<path class="st2" d="M229.5,73h30c2.8,0,5,2.2,5,5v30c0,2.8-2.2,5-5,5h-30c-2.8,0-5-2.2-5-5V78C224.5,75.2,226.7,73,229.5,73z"/>
	<path class="st2" d="M229.5,73h30c2.8,0,5,2.2,5,5v30c0,2.8-2.2,5-5,5h-30c-2.8,0-5-2.2-5-5V78C224.5,75.2,226.7,73,229.5,73z"/>
</g>
<g>
	<path class="st0" d="M277.5,70h42c2.8,0,5,2.2,5,5v42c0,2.8-2.2,5-5,5h-42c-2.8,0-5-2.2-5-5V75C272.5,72.2,274.7,70,277.5,70z"/>
	<path class="st1" d="M277.5,70h42c2.8,0,5,2.2,5,5v42c0,2.8-2.2,5-5,5h-42c-2.8,0-5-2.2-5-5V75C272.5,72.2,274.7,70,277.5,70z"/>
	<path class="st2" d="M283.5,73h30c2.8,0,5,2.2,5,5v30c0,2.8-2.2,5-5,5h-30c-2.8,0-5-2.2-5-5V78C278.5,75.2,280.7,73,283.5,73z"/>
	<path class="st2" d="M283.5,73h30c2.8,0,5,2.2,5,5v30c0,2.8-2.2,5-5,5h-30c-2.8,0-5-2.2-5-5V78C278.5,75.2,280.7,73,283.5,73z"/>
</g>
<g>
	<path class="st0" d="M61.5,124h42c2.8,0,5,2.2,5,5v42c0,2.8-2.2,5-5,5h-42c-2.8,0-5-2.2-5-5v-42C56.5,126.2,58.7,124,61.5,124z"/>
	<path class="st1" d="M61.5,124h42c2.8,0,5,2.2,5,5v42c0,2.8-2.2,5-5,5h-42c-2.8,0-5-2.2-5-5v-42C56.5,126.2,58.7,124,61.5,124z"/>
	<path class="st2" d="M67.5,127h30c2.8,0,5,2.2,5,5v30c0,2.8-2.2,5-5,5h-30c-2.8,0-5-2.2-5-5v-30C62.5,129.2,64.7,127,67.5,127z"/>
	<path class="st2" d="M67.5,127h30c2.8,0,5,2.2,5,5v30c0,2.8-2.2,5-5,5h-30c-2.8,0-5-2.2-5-5v-30C62.5,129.2,64.7,127,67.5,127z"/>
</g>
<g>
	<path class="st3" d="M115.5,124h42c2.8,0,5,2.2,5,5v42c0,2.8-2.2,5-5,5h-42c-2.8,0-5-2.2-5-5v-42C110.5,126.2,112.7,124,115.5,124z
		"/>
	<path class="st4" d="M115.5,124h42c2.8,0,5,2.2,5,5v42c0,2.8-2.2,5-5,5h-42c-2.8,0-5-2.2-5-5v-42C110.5,126.2,112.7,124,115.5,124z
		"/>
	<path class="st5" d="M121.5,127h30c2.8,0,5,2.2,5,5v30c0,2.8-2.2,5-5,5h-30c-2.8,0-5-2.2-5-5v-30C116.5,129.2,118.7,127,121.5,127z
		"/>
	<path class="st5" d="M121.5,127h30c2.8,0,5,2.2,5,5v30c0,2.8-2.2,5-5,5h-30c-2.8,0-5-2.2-5-5v-30C116.5,129.2,118.7,127,121.5,127z
		"/>
</g>
<g>
	<path class="st3" d="M169.5,124h42c2.8,0,5,2.2,5,5v42c0,2.8-2.2,5-5,5h-42c-2.8,0-5-2.2-5-5v-42C164.5,126.2,166.7,124,169.5,124z
		"/>
	<path class="st4" d="M169.5,124h42c2.8,0,5,2.2,5,5v42c0,2.8-2.2,5-5,5h-42c-2.8,0-5-2.2-5-5v-42C164.5,126.2,166.7,124,169.5,124z
		"/>
	<path class="st5" d="M175.5,127h30c2.8,0,5,2.2,5,5v30c0,2.8-2.2,5-5,5h-30c-2.8,0-5-2.2-5-5v-30C170.5,129.2,172.7,127,175.5,127z
		"/>
	<path class="st5" d="M175.5,127h30c2.8,0,5,2.2,5,5v30c0,2.8-2.2,5-5,5h-30c-2.8,0-5-2.2-5-5v-30C170.5,129.2,172.7,127,175.5,127z
		"/>
</g>
<g>
	<path class="st3" d="M223.5,124h42c2.8,0,5,2.2,5,5v42c0,2.8-2.2,5-5,5h-42c-2.8,0-5-2.2-5-5v-42C218.5,126.2,220.7,124,223.5,124z
		"/>
	<path class="st4" d="M223.5,124h42c2.8,0,5,2.2,5,5v42c0,2.8-2.2,5-5,5h-42c-2.8,0-5-2.2-5-5v-42C218.5,126.2,220.7,124,223.5,124z
		"/>
	<path class="st5" d="M229.5,127h30c2.8,0,5,2.2,5,5v30c0,2.8-2.2,5-5,5h-30c-2.8,0-5-2.2-5-5v-30C224.5,129.2,226.7,127,229.5,127z
		"/>
	<path class="st5" d="M229.5,127h30c2.8,0,5,2.2,5,5v30c0,2.8-2.2,5-5,5h-30c-2.8,0-5-2.2-5-5v-30C224.5,129.2,226.7,127,229.5,127z
		"/>
</g>
<g>
	<path class="st3" d="M277.5,124h42c2.8,0,5,2.2,5,5v42c0,2.8-2.2,5-5,5h-42c-2.8,0-5-2.2-5-5v-42C272.5,126.2,274.7,124,277.5,124z
		"/>
	<path class="st4" d="M277.5,124h42c2.8,0,5,2.2,5,5v42c0,2.8-2.2,5-5,5h-42c-2.8,0-5-2.2-5-5v-42C272.5,126.2,274.7,124,277.5,124z
		"/>
	<path class="st5" d="M283.5,127h30c2.8,0,5,2.2,5,5v30c0,2.8-2.2,5-5,5h-30c-2.8,0-5-2.2-5-5v-30C278.5,129.2,280.7,127,283.5,127z
		"/>
	<path class="st5" d="M283.5,127h30c2.8,0,5,2.2,5,5v30c0,2.8-2.2,5-5,5h-30c-2.8,0-5-2.2-5-5v-30C278.5,129.2,280.7,127,283.5,127z
		"/>
</g>
<g>
	<path class="st0" d="M48,178h42c2.8,0,5,2.2,5,5v42c0,2.8-2.2,5-5,5H48c-2.8,0-5-2.2-5-5v-42C43,180.2,45.2,178,48,178z"/>
	<path class="st1" d="M48,178h42c2.8,0,5,2.2,5,5v42c0,2.8-2.2,5-5,5H48c-2.8,0-5-2.2-5-5v-42C43,180.2,45.2,178,48,178z"/>
	<path class="st2" d="M54,181h30c2.8,0,5,2.2,5,5v30c0,2.8-2.2,5-5,5H54c-2.8,0-5-2.2-5-5v-30C49,183.2,51.2,181,54,181z"/>
	<path class="st2" d="M54,181h30c2.8,0,5,2.2,5,5v30c0,2.8-2.2,5-5,5H54c-2.8,0-5-2.2-5-5v-30C49,183.2,51.2,181,54,181z"/>
</g>
<g>
	<path class="st0" d="M102,178h42c2.8,0,5,2.2,5,5v42c0,2.8-2.2,5-5,5h-42c-2.8,0-5-2.2-5-5v-42C97,180.2,99.2,178,102,178z"/>
	<path class="st1" d="M102,178h42c2.8,0,5,2.2,5,5v42c0,2.8-2.2,5-5,5h-42c-2.8,0-5-2.2-5-5v-42C97,180.2,99.2,178,102,178z"/>
	<path class="st2" d="M108,181h30c2.8,0,5,2.2,5,5v30c0,2.8-2.2,5-5,5h-30c-2.8,0-5-2.2-5-5v-30C103,183.2,105.2,181,108,181z"/>
	<path class="st2" d="M108,181h30c2.8,0,5,2.2,5,5v30c0,2.8-2.2,5-5,5h-30c-2.8,0-5-2.2-5-5v-30C103,183.2,105.2,181,108,181z"/>
</g>
<g>
	<path class="st3" d="M156,178h42c2.8,0,5,2.2,5,5v42c0,2.8-2.2,5-5,5h-42c-2.8,0-5-2.2-5-5v-42C151,180.2,153.2,178,156,178z"/>
	<path class="st4" d="M156,178h42c2.8,0,5,2.2,5,5v42c0,2.8-2.2,5-5,5h-42c-2.8,0-5-2.2-5-5v-42C151,180.2,153.2,178,156,178z"/>
	<path class="st5" d="M162,181h30c2.8,0,5,2.2,5,5v30c0,2.8-2.2,5-5,5h-30c-2.8,0-5-2.2-5-5v-30C157,183.2,159.2,181,162,181z"/>
	<path class="st5" d="M162,181h30c2.8,0,5,2.2,5,5v30c0,2.8-2.2,5-5,5h-30c-2.8,0-5-2.2-5-5v-30C157,183.2,159.2,181,162,181z"/>
</g>
<g>
	<path class="st6" d="M210,178h42c2.8,0,5,2.2,5,5v42c0,2.8-2.2,5-5,5h-42c-2.8,0-5-2.2-5-5v-42C205,180.2,207.2,178,210,178z"/>
	<path class="st7" d="M210,178h42c2.8,0,5,2.2,5,5v42c0,2.8-2.2,5-5,5h-42c-2.8,0-5-2.2-5-5v-42C205,180.2,207.2,178,210,178z"/>
	<path class="st8" d="M216,181h30c2.8,0,5,2.2,5,5v30c0,2.8-2.2,5-5,5h-30c-2.8,0-5-2.2-5-5v-30C211,183.2,213.2,181,216,181z"/>
	<path class="st8" d="M216,181h30c2.8,0,5,2.2,5,5v30c0,2.8-2.2,5-5,5h-30c-2.8,0-5-2.2-5-5v-30C211,183.2,213.2,181,216,181z"/>
</g>
<g>
	<path class="st3" d="M264,178h42c2.8,0,5,2.2,5,5v42c0,2.8-2.2,5-5,5h-42c-2.8,0-5-2.2-5-5v-42C259,180.2,261.2,178,264,178z"/>
	<path class="st4" d="M264,178h42c2.8,0,5,2.2,5,5v42c0,2.8-2.2,5-5,5h-42c-2.8,0-5-2.2-5-5v-42C259,180.2,261.2,178,264,178z"/>
	<path class="st5" d="M270,181h30c2.8,0,5,2.2,5,5v30c0,2.8-2.2,5-5,5h-30c-2.8,0-5-2.2-5-5v-30C265,183.2,267.2,181,270,181z"/>
	<path class="st5" d="M270,181h30c2.8,0,5,2.2,5,5v30c0,2.8-2.2,5-5,5h-30c-2.8,0-5-2.2-5-5v-30C265,183.2,267.2,181,270,181z"/>
</g>
<g>
	<path class="st3" d="M318,178h42c2.8,0,5,2.2,5,5v42c0,2.8-2.2,5-5,5h-42c-2.8,0-5-2.2-5-5v-42C313,180.2,315.2,178,318,178z"/>
	<path class="st4" d="M318,178h42c2.8,0,5,2.2,5,5v42c0,2.8-2.2,5-5,5h-42c-2.8,0-5-2.2-5-5v-42C313,180.2,315.2,178,318,178z"/>
	<path class="st5" d="M324,181h30c2.8,0,5,2.2,5,5v30c0,2.8-2.2,5-5,5h-30c-2.8,0-5-2.2-5-5v-30C319,183.2,321.2,181,324,181z"/>
	<path class="st5" d="M324,181h30c2.8,0,5,2.2,5,5v30c0,2.8-2.2,5-5,5h-30c-2.8,0-5-2.2-5-5v-30C319,183.2,321.2,181,324,181z"/>
</g>
<g>
	<path class="st0" d="M34.5,232h42c2.8,0,5,2.2,5,5v42c0,2.8-2.2,5-5,5h-42c-2.8,0-5-2.2-5-5v-42C29.5,234.2,31.7,232,34.5,232z"/>
	<path class="st1" d="M34.5,232h42c2.8,0,5,2.2,5,5v42c0,2.8-2.2,5-5,5h-42c-2.8,0-5-2.2-5-5v-42C29.5,234.2,31.7,232,34.5,232z"/>
	<path class="st2" d="M40.5,235h30c2.8,0,5,2.2,5,5v30c0,2.8-2.2,5-5,5h-30c-2.8,0-5-2.2-5-5v-30C35.5,237.2,37.7,235,40.5,235z"/>
	<path class="st2" d="M40.5,235h30c2.8,0,5,2.2,5,5v30c0,2.8-2.2,5-5,5h-30c-2.8,0-5-2.2-5-5v-30C35.5,237.2,37.7,235,40.5,235z"/>
</g>
<g>
	<path class="st9" d="M88.5,232h42c2.8,0,5,2.2,5,5v42c0,2.8-2.2,5-5,5h-42c-2.8,0-5-2.2-5-5v-42C83.5,234.2,85.7,232,88.5,232z"/>
	<path class="st10" d="M88.5,232h42c2.8,0,5,2.2,5,5v42c0,2.8-2.2,5-5,5h-42c-2.8,0-5-2.2-5-5v-42C83.5,234.2,85.7,232,88.5,232z"/>
	<path class="st11" d="M94.5,235h30c2.8,0,5,2.2,5,5v30c0,2.8-2.2,5-5,5h-30c-2.8,0-5-2.2-5-5v-30C89.5,237.2,91.7,235,94.5,235z"/>
	<path class="st11" d="M94.5,235h30c2.8,0,5,2.2,5,5v30c0,2.8-2.2,5-5,5h-30c-2.8,0-5-2.2-5-5v-30C89.5,237.2,91.7,235,94.5,235z"/>
</g>
<g>
	<path class="st6" d="M142.5,232h42c2.8,0,5,2.2,5,5v42c0,2.8-2.2,5-5,5h-42c-2.8,0-5-2.2-5-5v-42C137.5,234.2,139.7,232,142.5,232z
		"/>
	<path class="st7" d="M142.5,232h42c2.8,0,5,2.2,5,5v42c0,2.8-2.2,5-5,5h-42c-2.8,0-5-2.2-5-5v-42C137.5,234.2,139.7,232,142.5,232z
		"/>
	<path class="st8" d="M148.5,235h30c2.8,0,5,2.2,5,5v30c0,2.8-2.2,5-5,5h-30c-2.8,0-5-2.2-5-5v-30C143.5,237.2,145.7,235,148.5,235z
		"/>
	<path class="st8" d="M148.5,235h30c2.8,0,5,2.2,5,5v30c0,2.8-2.2,5-5,5h-30c-2.8,0-5-2.2-5-5v-30C143.5,237.2,145.7,235,148.5,235z
		"/>
</g>
<g>
	<path class="st6" d="M196.5,232h42c2.8,0,5,2.2,5,5v42c0,2.8-2.2,5-5,5h-42c-2.8,0-5-2.2-5-5v-42C191.5,234.2,193.7,232,196.5,232z
		"/>
	<path class="st7" d="M196.5,232h42c2.8,0,5,2.2,5,5v42c0,2.8-2.2,5-5,5h-42c-2.8,0-5-2.2-5-5v-42C191.5,234.2,193.7,232,196.5,232z
		"/>
	<path class="st8" d="M202.5,235h30c2.8,0,5,2.2,5,5v30c0,2.8-2.2,5-5,5h-30c-2.8,0-5-2.2-5-5v-30C197.5,237.2,199.7,235,202.5,235z
		"/>
	<path class="st8" d="M202.5,235h30c2.8,0,5,2.2,5,5v30c0,2.8-2.2,5-5,5h-30c-2.8,0-5-2.2-5-5v-30C197.5,237.2,199.7,235,202.5,235z
		"/>
</g>
<g>
	<path class="st6" d="M250.5,232h42c2.8,0,5,2.2,5,5v42c0,2.8-2.2,5-5,5h-42c-2.8,0-5-2.2-5-5v-42C245.5,234.2,247.7,232,250.5,232z
		"/>
	<path class="st7" d="M250.5,232h42c2.8,0,5,2.2,5,5v42c0,2.8-2.2,5-5,5h-42c-2.8,0-5-2.2-5-5v-42C245.5,234.2,247.7,232,250.5,232z
		"/>
	<path class="st8" d="M256.5,235h30c2.8,0,5,2.2,5,5v30c0,2.8-2.2,5-5,5h-30c-2.8,0-5-2.2-5-5v-30C251.5,237.2,253.7,235,256.5,235z
		"/>
	<path class="st8" d="M256.5,235h30c2.8,0,5,2.2,5,5v30c0,2.8-2.2,5-5,5h-30c-2.8,0-5-2.2-5-5v-30C251.5,237.2,253.7,235,256.5,235z
		"/>
</g>
<g>
	<path class="st3" d="M304.5,232h42c2.8,0,5,2.2,5,5v42c0,2.8-2.2,5-5,5h-42c-2.8,0-5-2.2-5-5v-42C299.5,234.2,301.7,232,304.5,232z
		"/>
	<path class="st4" d="M304.5,232h42c2.8,0,5,2.2,5,5v42c0,2.8-2.2,5-5,5h-42c-2.8,0-5-2.2-5-5v-42C299.5,234.2,301.7,232,304.5,232z
		"/>
	<path class="st5" d="M310.5,235h30c2.8,0,5,2.2,5,5v30c0,2.8-2.2,5-5,5h-30c-2.8,0-5-2.2-5-5v-30C305.5,237.2,307.7,235,310.5,235z
		"/>
	<path class="st5" d="M310.5,235h30c2.8,0,5,2.2,5,5v30c0,2.8-2.2,5-5,5h-30c-2.8,0-5-2.2-5-5v-30C305.5,237.2,307.7,235,310.5,235z
		"/>
</g>
<g>
	<path class="st0" d="M34.5,286h42c2.8,0,5,2.2,5,5v42c0,2.8-2.2,5-5,5h-42c-2.8,0-5-2.2-5-5v-42C29.5,288.2,31.7,286,34.5,286z"/>
	<path class="st1" d="M34.5,286h42c2.8,0,5,2.2,5,5v42c0,2.8-2.2,5-5,5h-42c-2.8,0-5-2.2-5-5v-42C29.5,288.2,31.7,286,34.5,286z"/>
	<path class="st2" d="M40.5,289h30c2.8,0,5,2.2,5,5v30c0,2.8-2.2,5-5,5h-30c-2.8,0-5-2.2-5-5v-30C35.5,291.2,37.7,289,40.5,289z"/>
	<path class="st2" d="M40.5,289h30c2.8,0,5,2.2,5,5v30c0,2.8-2.2,5-5,5h-30c-2.8,0-5-2.2-5-5v-30C35.5,291.2,37.7,289,40.5,289z"/>
</g>
<g>
	<path class="st0" d="M88.5,286h42c2.8,0,5,2.2,5,5v42c0,2.8-2.2,5-5,5h-42c-2.8,0-5-2.2-5-5v-42C83.5,288.2,85.7,286,88.5,286z"/>
	<path class="st1" d="M88.5,286h42c2.8,0,5,2.2,5,5v42c0,2.8-2.2,5-5,5h-42c-2.8,0-5-2.2-5-5v-42C83.5,288.2,85.7,286,88.5,286z"/>
	<path class="st2" d="M94.5,289h30c2.8,0,5,2.2,5,5v30c0,2.8-2.2,5-5,5h-30c-2.8,0-5-2.2-5-5v-30C89.5,291.2,91.7,289,94.5,289z"/>
	<path class="st2" d="M94.5,289h30c2.8,0,5,2.2,5,5v30c0,2.8-2.2,5-5,5h-30c-2.8,0-5-2.2-5-5v-30C89.5,291.2,91.7,289,94.5,289z"/>
</g>
<g>
	<path class="st0" d="M142.5,286h42c2.8,0,5,2.2,5,5v42c0,2.8-2.2,5-5,5h-42c-2.8,0-5-2.2-5-5v-42C137.5,288.2,139.7,286,142.5,286z
		"/>
	<path class="st1" d="M142.5,286h42c2.8,0,5,2.2,5,5v42c0,2.8-2.2,5-5,5h-42c-2.8,0-5-2.2-5-5v-42C137.5,288.2,139.7,286,142.5,286z
		"/>
	<path class="st2" d="M148.5,289h30c2.8,0,5,2.2,5,5v30c0,2.8-2.2,5-5,5h-30c-2.8,0-5-2.2-5-5v-30C143.5,291.2,145.7,289,148.5,289z
		"/>
	<path class="st2" d="M148.5,289h30c2.8,0,5,2.2,5,5v30c0,2.8-2.2,5-5,5h-30c-2.8,0-5-2.2-5-5v-30C143.5,291.2,145.7,289,148.5,289z
		"/>
</g>
<g>
	<path class="st3" d="M196.5,286h42c2.8,0,5,2.2,5,5v42c0,2.8-2.2,5-5,5h-42c-2.8,0-5-2.2-5-5v-42C191.5,288.2,193.7,286,196.5,286z
		"/>
	<path class="st4" d="M196.5,286h42c2.8,0,5,2.2,5,5v42c0,2.8-2.2,5-5,5h-42c-2.8,0-5-2.2-5-5v-42C191.5,288.2,193.7,286,196.5,286z
		"/>
	<path class="st5" d="M202.5,289h30c2.8,0,5,2.2,5,5v30c0,2.8-2.2,5-5,5h-30c-2.8,0-5-2.2-5-5v-30C197.5,291.2,199.7,289,202.5,289z
		"/>
	<path class="st5" d="M202.5,289h30c2.8,0,5,2.2,5,5v30c0,2.8-2.2,5-5,5h-30c-2.8,0-5-2.2-5-5v-30C197.5,291.2,199.7,289,202.5,289z
		"/>
</g>
<g>
	<path class="st0" d="M250.5,286h42c2.8,0,5,2.2,5,5v42c0,2.8-2.2,5-5,5h-42c-2.8,0-5-2.2-5-5v-42C245.5,288.2,247.7,286,250.5,286z
		"/>
	<path class="st1" d="M250.5,286h42c2.8,0,5,2.2,5,5v42c0,2.8-2.2,5-5,5h-42c-2.8,0-5-2.2-5-5v-42C245.5,288.2,247.7,286,250.5,286z
		"/>
	<path class="st2" d="M256.5,289h30c2.8,0,5,2.2,5,5v30c0,2.8-2.2,5-5,5h-30c-2.8,0-5-2.2-5-5v-30C251.5,291.2,253.7,289,256.5,289z
		"/>
	<path class="st2" d="M256.5,289h30c2.8,0,5,2.2,5,5v30c0,2.8-2.2,5-5,5h-30c-2.8,0-5-2.2-5-5v-30C251.5,291.2,253.7,289,256.5,289z
		"/>
</g>
<g>
	<path class="st0" d="M304.5,286h42c2.8,0,5,2.2,5,5v42c0,2.8-2.2,5-5,5h-42c-2.8,0-5-2.2-5-5v-42C299.5,288.2,301.7,286,304.5,286z
		"/>
	<path class="st1" d="M304.5,286h42c2.8,0,5,2.2,5,5v42c0,2.8-2.2,5-5,5h-42c-2.8,0-5-2.2-5-5v-42C299.5,288.2,301.7,286,304.5,286z
		"/>
	<path class="st2" d="M310.5,289h30c2.8,0,5,2.2,5,5v30c0,2.8-2.2,5-5,5h-30c-2.8,0-5-2.2-5-5v-30C305.5,291.2,307.7,289,310.5,289z
		"/>
	<path class="st2" d="M310.5,289h30c2.8,0,5,2.2,5,5v30c0,2.8-2.2,5-5,5h-30c-2.8,0-5-2.2-5-5v-30C305.5,291.2,307.7,289,310.5,289z
		"/>
</g>
<g>
	<path class="st0" d="M156,340h42c2.8,0,5,2.2,5,5v42c0,2.8-2.2,5-5,5h-42c-2.8,0-5-2.2-5-5v-42C151,342.2,153.2,340,156,340z"/>
	<path class="st1" d="M156,340h42c2.8,0,5,2.2,5,5v42c0,2.8-2.2,5-5,5h-42c-2.8,0-5-2.2-5-5v-42C151,342.2,153.2,340,156,340z"/>
	<path class="st2" d="M162,343h30c2.8,0,5,2.2,5,5v30c0,2.8-2.2,5-5,5h-30c-2.8,0-5-2.2-5-5v-30C157,345.2,159.2,343,162,343z"/>
	<path class="st2" d="M162,343h30c2.8,0,5,2.2,5,5v30c0,2.8-2.2,5-5,5h-30c-2.8,0-5-2.2-5-5v-30C157,345.2,159.2,343,162,343z"/>
</g>
<g>
	<path class="st9" d="M210,340h42c2.8,0,5,2.2,5,5v42c0,2.8-2.2,5-5,5h-42c-2.8,0-5-2.2-5-5v-42C205,342.2,207.2,340,210,340z"/>
	<path class="st10" d="M210,340h42c2.8,0,5,2.2,5,5v42c0,2.8-2.2,5-5,5h-42c-2.8,0-5-2.2-5-5v-42C205,342.2,207.2,340,210,340z"/>
	<path class="st11" d="M216,343h30c2.8,0,5,2.2,5,5v30c0,2.8-2.2,5-5,5h-30c-2.8,0-5-2.2-5-5v-30C211,345.2,213.2,343,216,343z"/>
	<path class="st11" d="M216,343h30c2.8,0,5,2.2,5,5v30c0,2.8-2.2,5-5,5h-30c-2.8,0-5-2.2-5-5v-30C211,345.2,213.2,343,216,343z"/>
</g>
<g>
	<path class="st0" d="M264,340h42c2.8,0,5,2.2,5,5v42c0,2.8-2.2,5-5,5h-42c-2.8,0-5-2.2-5-5v-42C259,342.2,261.2,340,264,340z"/>
	<path class="st1" d="M264,340h42c2.8,0,5,2.2,5,5v42c0,2.8-2.2,5-5,5h-42c-2.8,0-5-2.2-5-5v-42C259,342.2,261.2,340,264,340z"/>
	<path class="st2" d="M270,343h30c2.8,0,5,2.2,5,5v30c0,2.8-2.2,5-5,5h-30c-2.8,0-5-2.2-5-5v-30C265,345.2,267.2,343,270,343z"/>
	<path class="st2" d="M270,343h30c2.8,0,5,2.2,5,5v30c0,2.8-2.2,5-5,5h-30c-2.8,0-5-2.2-5-5v-30C265,345.2,267.2,343,270,343z"/>
</g>
<g>
	<path class="st0" d="M34.5,367H144c2.8,0,5,2.2,5,5v42c0,2.8-2.2,5-5,5H34.5c-2.8,0-5-2.2-5-5v-42C29.5,369.2,31.7,367,34.5,367z"
		/>
	<path class="st1" d="M34.5,367H144c2.8,0,5,2.2,5,5v42c0,2.8-2.2,5-5,5H34.5c-2.8,0-5-2.2-5-5v-42C29.5,369.2,31.7,367,34.5,367z"
		/>
	<path class="st2" d="M40.5,370H138c2.8,0,5,2.2,5,5v30c0,2.8-2.2,5-5,5H40.5c-2.8,0-5-2.2-5-5v-30C35.5,372.2,37.7,370,40.5,370z"
		/>
	<path class="st2" d="M40.5,370H138c2.8,0,5,2.2,5,5v30c0,2.8-2.2,5-5,5H40.5c-2.8,0-5-2.2-5-5v-30C35.5,372.2,37.7,370,40.5,370z"
		/>
</g>
<g>
	<path class="st0" d="M318,380.5h42c2.8,0,5,2.2,5,5v42c0,2.8-2.2,5-5,5h-42c-2.8,0-5-2.2-5-5v-42C313,382.7,315.2,380.5,318,380.5z
		"/>
	<path class="st1" d="M318,380.5h42c2.8,0,5,2.2,5,5v42c0,2.8-2.2,5-5,5h-42c-2.8,0-5-2.2-5-5v-42C313,382.7,315.2,380.5,318,380.5z
		"/>
	<path class="st2" d="M324,383.5h30c2.8,0,5,2.2,5,5v30c0,2.8-2.2,5-5,5h-30c-2.8,0-5-2.2-5-5v-30C319,385.7,321.2,383.5,324,383.5z
		"/>
	<path class="st2" d="M324,383.5h30c2.8,0,5,2.2,5,5v30c0,2.8-2.2,5-5,5h-30c-2.8,0-5-2.2-5-5v-30C319,385.7,321.2,383.5,324,383.5z
		"/>
</g>
<g>
	<path class="st0" d="M318,434.5h42c2.8,0,5,2.2,5,5v42c0,2.8-2.2,5-5,5h-42c-2.8,0-5-2.2-5-5v-42C313,436.7,315.2,434.5,318,434.5z
		"/>
	<path class="st1" d="M318,434.5h42c2.8,0,5,2.2,5,5v42c0,2.8-2.2,5-5,5h-42c-2.8,0-5-2.2-5-5v-42C313,436.7,315.2,434.5,318,434.5z
		"/>
	<path class="st2" d="M324,437.5h30c2.8,0,5,2.2,5,5v30c0,2.8-2.2,5-5,5h-30c-2.8,0-5-2.2-5-5v-30C319,439.7,321.2,437.5,324,437.5z
		"/>
	<path class="st2" d="M324,437.5h30c2.8,0,5,2.2,5,5v30c0,2.8-2.2,5-5,5h-30c-2.8,0-5-2.2-5-5v-30C319,439.7,321.2,437.5,324,437.5z
		"/>
</g>
</svg>
